<svg xmlns="http://www.w3.org/2000/svg" viewBox="0 0 100.4 27.4"><path d="M87.7117 7.52227C88.731 7.52227 89.6561 7.98894 90.2645 8.68145C91.3468 7.92682 92.6185 7.55359 93.8982 7.55352C95.7471 7.55352 97.5649 8.3078 98.8133 9.84844C100.662 12.0816 100.662 15.3498 98.8133 17.6141C97.565 19.1546 95.7476 19.9089 93.9305 19.909C92.9428 19.909 91.9864 19.6914 91.0936 19.2479V27.2H87.6492V10.9451H86.116V7.52227H87.7117ZM75.742 7.5457C77.2116 7.5457 78.2307 8.08223 79.0604 8.89922L76.6033 11.2879C76.3821 11.07 76.0893 10.9451 75.7732 10.9451C75.6076 10.9452 75.4498 10.9768 75.2605 11.0389C74.8814 11.1945 74.6276 11.5366 74.5564 11.9256V19.9324H71.0809V10.9764H69.5789V7.58379H71.1756C71.8786 7.58387 72.5424 7.83341 73.1111 8.20684V8.19902C73.9091 7.79443 74.8571 7.54571 75.742 7.5457ZM57.3006 16.5174H58.8025V19.909H57.2059C56.1867 19.9089 55.2624 19.4734 54.6541 18.7498C53.5717 19.5046 52.2993 19.8787 51.0193 19.8787C49.2022 19.8786 47.3848 19.1235 46.1365 17.6141C44.2561 15.3498 44.2561 12.0816 46.1365 9.84844C47.3849 8.30781 49.1708 7.55352 50.9881 7.55352C51.9756 7.55353 52.9629 7.77126 53.824 8.21465V0.23125H57.3006V16.5174ZM3.67656 16.5086H11.7518V19.9012H0.2V0.2625H3.67656V16.5086ZM16.0574 14.0584C16.0576 15.3809 16.8555 16.5085 18.1668 16.5086C19.4782 16.5086 20.2447 15.381 20.2449 14.0584V7.55254H23.7215V16.5086H25.3807V19.9012H23.6268C22.7974 19.9012 22.031 19.6215 21.4227 19.116C20.5931 19.6529 19.542 19.9011 18.2938 19.9012H18.1668C14.6826 19.87 12.6443 17.9559 12.6443 14.1199V7.55254H16.0574V14.0584ZM42.1707 16.5086H43.7029V19.9012H42.076C40.2271 19.9012 38.7254 18.423 38.7254 16.5711V7.55254H42.1707V16.5086ZM83.7225 16.5086H85.2547V19.9012H83.6268C81.7781 19.9009 80.2771 18.4228 80.2771 16.5711V7.55254H83.7225V16.5086ZM32.823 7.49883C34.419 7.49883 36.0468 8.08991 37.2557 9.31914L34.7986 11.7078C34.2614 11.171 33.5578 10.8914 32.823 10.8914C32.3412 10.8915 31.8354 11.0155 31.4168 11.2645H31.4246C30.3029 11.8948 29.7658 13.1787 30.0818 14.408C30.4294 15.6373 31.5117 16.485 32.823 16.4852C33.5499 16.4852 34.2851 16.1744 34.7986 15.6688L37.2557 18.0574C36.0468 19.2789 34.4506 19.8777 32.823 19.8777C31.1956 19.8776 29.6074 19.2867 28.3592 18.0574C25.9336 15.6375 25.9336 11.739 28.3592 9.31914C29.5995 8.09764 31.2272 7.49894 32.823 7.49883ZM63.4871 0.2C64.0638 0.2 64.6331 0.363165 65.115 0.612109C65.597 0.324248 66.1346 0.2 66.743 0.2H70.8592V3.62383H66.8377V19.8699H63.3924V3.59258H59.3074V0.2H63.4871ZM51.0115 10.9539C49.4551 10.954 48.1757 12.1518 48.1756 13.7156C48.1756 15.2796 49.4472 16.5095 51.0115 16.5096C52.568 16.5096 53.8162 15.2485 53.8162 13.7156C53.8161 12.1828 52.568 10.9539 51.0115 10.9539ZM93.907 10.9529C92.3505 10.9529 91.1014 12.1516 91.1014 13.7156C91.1014 15.2796 92.3426 16.5086 93.907 16.5086C95.4949 16.5083 96.7429 15.2483 96.743 13.7156C96.743 12.1829 95.4633 10.9532 93.907 10.9529ZM42.1707 3.9041H38.7254V0.29375H42.1707V3.9041ZM83.7225 3.9041H80.2771V0.29375H83.7225V3.9041Z" fill="#000"/></svg>