<svg width="100.4" height="27.4" overflow="visible" style="display: block;" viewBox="0 0 100.4 27.4" fill="none" xmlns="http://www.w3.org/2000/svg">
<g id="LucidTrip_logo">
<mask id="path-1-outside-1_0_4" maskUnits="userSpaceOnUse" x="-0.8" y="-0.8" width="102" height="29" fill="black">
<rect fill="white" x="-0.8" y="-0.8" width="102" height="29"/>
<path d="M87.7117 7.52227C88.731 7.52227 89.6561 7.98894 90.2645 8.68145C91.3468 7.92682 92.6185 7.55359 93.8982 7.55352C95.7471 7.55352 97.5649 8.3078 98.8133 9.84844C100.662 12.0816 100.662 15.3498 98.8133 17.6141C97.565 19.1546 95.7476 19.9089 93.9305 19.909C92.9428 19.909 91.9864 19.6914 91.0936 19.2479V27.2H87.6492V10.9451H86.116V7.52227H87.7117ZM75.742 7.5457C77.2116 7.5457 78.2307 8.08223 79.0604 8.89922L76.6033 11.2879C76.3821 11.07 76.0893 10.9451 75.7732 10.9451C75.6076 10.9452 75.4498 10.9768 75.2605 11.0389C74.8814 11.1945 74.6276 11.5366 74.5564 11.9256V19.9324H71.0809V10.9764H69.5789V7.58379H71.1756C71.8786 7.58387 72.5424 7.83341 73.1111 8.20684V8.19902C73.9091 7.79443 74.8571 7.54571 75.742 7.5457ZM57.3006 16.5174H58.8025V19.909H57.2059C56.1867 19.9089 55.2624 19.4734 54.6541 18.7498C53.5717 19.5046 52.2993 19.8787 51.0193 19.8787C49.2022 19.8786 47.3848 19.1235 46.1365 17.6141C44.2561 15.3498 44.2561 12.0816 46.1365 9.84844C47.3849 8.30781 49.1708 7.55352 50.9881 7.55352C51.9756 7.55353 52.9629 7.77126 53.824 8.21465V0.23125H57.3006V16.5174ZM3.67656 16.5086H11.7518V19.9012H0.2V0.2625H3.67656V16.5086ZM16.0574 14.0584C16.0576 15.3809 16.8555 16.5085 18.1668 16.5086C19.4782 16.5086 20.2447 15.381 20.2449 14.0584V7.55254H23.7215V16.5086H25.3807V19.9012H23.6268C22.7974 19.9012 22.031 19.6215 21.4227 19.116C20.5931 19.6529 19.542 19.9011 18.2938 19.9012H18.1668C14.6826 19.87 12.6443 17.9559 12.6443 14.1199V7.55254H16.0574V14.0584ZM42.1707 16.5086H43.7029V19.9012H42.076C40.2271 19.9012 38.7254 18.423 38.7254 16.5711V7.55254H42.1707V16.5086ZM83.7225 16.5086H85.2547V19.9012H83.6268C81.7781 19.9009 80.2771 18.4228 80.2771 16.5711V7.55254H83.7225V16.5086ZM32.823 7.49883C34.419 7.49883 36.0468 8.08991 37.2557 9.31914L34.7986 11.7078C34.2614 11.171 33.5578 10.8914 32.823 10.8914C32.3412 10.8915 31.8354 11.0155 31.4168 11.2645H31.4246C30.3029 11.8948 29.7658 13.1787 30.0818 14.408C30.4294 15.6373 31.5117 16.485 32.823 16.4852C33.5499 16.4852 34.2851 16.1744 34.7986 15.6688L37.2557 18.0574C36.0468 19.2789 34.4506 19.8777 32.823 19.8777C31.1956 19.8776 29.6074 19.2867 28.3592 18.0574C25.9336 15.6375 25.9336 11.739 28.3592 9.31914C29.5995 8.09764 31.2272 7.49894 32.823 7.49883ZM63.4871 0.2C64.0638 0.2 64.6331 0.363165 65.115 0.612109C65.597 0.324248 66.1346 0.2 66.743 0.2H70.8592V3.62383H66.8377V19.8699H63.3924V3.59258H59.3074V0.2H63.4871ZM51.0115 10.9539C49.4551 10.954 48.1757 12.1518 48.1756 13.7156C48.1756 15.2796 49.4472 16.5095 51.0115 16.5096C52.568 16.5096 53.8162 15.2485 53.8162 13.7156C53.8161 12.1828 52.568 10.9539 51.0115 10.9539ZM93.907 10.9529C92.3505 10.9529 91.1014 12.1516 91.1014 13.7156C91.1014 15.2796 92.3426 16.5086 93.907 16.5086C95.4949 16.5083 96.7429 15.2483 96.743 13.7156C96.743 12.1829 95.4633 10.9532 93.907 10.9529ZM42.1707 3.9041H38.7254V0.29375H42.1707V3.9041ZM83.7225 3.9041H80.2771V0.29375H83.7225V3.9041Z"/>
</mask>
<path d="M87.7117 7.52227C88.731 7.52227 89.6561 7.98894 90.2645 8.68145C91.3468 7.92682 92.6185 7.55359 93.8982 7.55352C95.7471 7.55352 97.5649 8.3078 98.8133 9.84844C100.662 12.0816 100.662 15.3498 98.8133 17.6141C97.565 19.1546 95.7476 19.9089 93.9305 19.909C92.9428 19.909 91.9864 19.6914 91.0936 19.2479V27.2H87.6492V10.9451H86.116V7.52227H87.7117ZM75.742 7.5457C77.2116 7.5457 78.2307 8.08223 79.0604 8.89922L76.6033 11.2879C76.3821 11.07 76.0893 10.9451 75.7732 10.9451C75.6076 10.9452 75.4498 10.9768 75.2605 11.0389C74.8814 11.1945 74.6276 11.5366 74.5564 11.9256V19.9324H71.0809V10.9764H69.5789V7.58379H71.1756C71.8786 7.58387 72.5424 7.83341 73.1111 8.20684V8.19902C73.9091 7.79443 74.8571 7.54571 75.742 7.5457ZM57.3006 16.5174H58.8025V19.909H57.2059C56.1867 19.9089 55.2624 19.4734 54.6541 18.7498C53.5717 19.5046 52.2993 19.8787 51.0193 19.8787C49.2022 19.8786 47.3848 19.1235 46.1365 17.6141C44.2561 15.3498 44.2561 12.0816 46.1365 9.84844C47.3849 8.30781 49.1708 7.55352 50.9881 7.55352C51.9756 7.55353 52.9629 7.77126 53.824 8.21465V0.23125H57.3006V16.5174ZM3.67656 16.5086H11.7518V19.9012H0.2V0.2625H3.67656V16.5086ZM16.0574 14.0584C16.0576 15.3809 16.8555 16.5085 18.1668 16.5086C19.4782 16.5086 20.2447 15.381 20.2449 14.0584V7.55254H23.7215V16.5086H25.3807V19.9012H23.6268C22.7974 19.9012 22.031 19.6215 21.4227 19.116C20.5931 19.6529 19.542 19.9011 18.2938 19.9012H18.1668C14.6826 19.87 12.6443 17.9559 12.6443 14.1199V7.55254H16.0574V14.0584ZM42.1707 16.5086H43.7029V19.9012H42.076C40.2271 19.9012 38.7254 18.423 38.7254 16.5711V7.55254H42.1707V16.5086ZM83.7225 16.5086H85.2547V19.9012H83.6268C81.7781 19.9009 80.2771 18.4228 80.2771 16.5711V7.55254H83.7225V16.5086ZM32.823 7.49883C34.419 7.49883 36.0468 8.08991 37.2557 9.31914L34.7986 11.7078C34.2614 11.171 33.5578 10.8914 32.823 10.8914C32.3412 10.8915 31.8354 11.0155 31.4168 11.2645H31.4246C30.3029 11.8948 29.7658 13.1787 30.0818 14.408C30.4294 15.6373 31.5117 16.485 32.823 16.4852C33.5499 16.4852 34.2851 16.1744 34.7986 15.6688L37.2557 18.0574C36.0468 19.2789 34.4506 19.8777 32.823 19.8777C31.1956 19.8776 29.6074 19.2867 28.3592 18.0574C25.9336 15.6375 25.9336 11.739 28.3592 9.31914C29.5995 8.09764 31.2272 7.49894 32.823 7.49883ZM63.4871 0.2C64.0638 0.2 64.6331 0.363165 65.115 0.612109C65.597 0.324248 66.1346 0.2 66.743 0.2H70.8592V3.62383H66.8377V19.8699H63.3924V3.59258H59.3074V0.2H63.4871ZM51.0115 10.9539C49.4551 10.954 48.1757 12.1518 48.1756 13.7156C48.1756 15.2796 49.4472 16.5095 51.0115 16.5096C52.568 16.5096 53.8162 15.2485 53.8162 13.7156C53.8161 12.1828 52.568 10.9539 51.0115 10.9539ZM93.907 10.9529C92.3505 10.9529 91.1014 12.1516 91.1014 13.7156C91.1014 15.2796 92.3426 16.5086 93.907 16.5086C95.4949 16.5083 96.7429 15.2483 96.743 13.7156C96.743 12.1829 95.4633 10.9532 93.907 10.9529ZM42.1707 3.9041H38.7254V0.29375H42.1707V3.9041ZM83.7225 3.9041H80.2771V0.29375H83.7225V3.9041Z" fill="url(#paint0_linear_0_4)" fill-opacity="0.5"/>
<path d="M90.2645 8.68145L90.1142 8.81345L90.2322 8.94775L90.3788 8.8455L90.2645 8.68145ZM93.8982 7.55352V7.35352H93.8982L93.8982 7.55352ZM98.8133 9.84844L98.6579 9.97436L98.6592 9.97598L98.8133 9.84844ZM98.8133 17.6141L98.6584 17.4876L98.6579 17.4881L98.8133 17.6141ZM93.9305 19.909V20.109H93.9305L93.9305 19.909ZM91.0936 19.2479L91.1825 19.0687L90.8936 18.9252V19.2479H91.0936ZM91.0936 27.2V27.4H91.2936V27.2H91.0936ZM87.6492 27.2H87.4492V27.4H87.6492V27.2ZM87.6492 10.9451H87.8492V10.7451H87.6492V10.9451ZM86.116 10.9451H85.916V11.1451H86.116V10.9451ZM86.116 7.52227V7.32227H85.916V7.52227H86.116ZM75.742 7.5457V7.3457V7.3457V7.5457ZM79.0604 8.89922L79.1998 9.04262L79.3463 8.90014L79.2007 8.75672L79.0604 8.89922ZM76.6033 11.2879L76.463 11.4304L76.6024 11.5677L76.7427 11.4313L76.6033 11.2879ZM75.7732 10.9451V10.7451H75.7732L75.7732 10.9451ZM75.2605 11.0389L75.1982 10.8488L75.1913 10.8511L75.1846 10.8538L75.2605 11.0389ZM74.5564 11.9256L74.3597 11.8896L74.3564 11.9074V11.9256H74.5564ZM74.5564 19.9324V20.1324H74.7564V19.9324H74.5564ZM71.0809 19.9324H70.8809V20.1324H71.0809V19.9324ZM71.0809 10.9764H71.2809V10.7764H71.0809V10.9764ZM69.5789 10.9764H69.3789V11.1764H69.5789V10.9764ZM69.5789 7.58379V7.38379H69.3789V7.58379H69.5789ZM71.1756 7.58379L71.1756 7.38379H71.1756V7.58379ZM73.1111 8.20684L73.0014 8.37402L73.3111 8.57739V8.20684H73.1111ZM73.1111 8.19902L73.0207 8.02064L72.9111 8.07619V8.19902H73.1111ZM57.3006 16.5174H57.1006V16.7174H57.3006V16.5174ZM58.8025 16.5174H59.0025V16.3174H58.8025V16.5174ZM58.8025 19.909V20.109H59.0025V19.909H58.8025ZM57.2059 19.909L57.2058 20.109H57.2059V19.909ZM54.6541 18.7498L54.8072 18.6211L54.6896 18.4812L54.5397 18.5857L54.6541 18.7498ZM51.0193 19.8787L51.0193 20.0787H51.0193V19.8787ZM46.1365 17.6141L46.2906 17.4866L46.2904 17.4863L46.1365 17.6141ZM46.1365 9.84844L46.2895 9.97728L46.2919 9.97435L46.1365 9.84844ZM50.9881 7.55352L50.9881 7.35352H50.9881V7.55352ZM53.824 8.21465L53.7325 8.39246L54.024 8.54258V8.21465H53.824ZM53.824 0.23125V0.03125H53.624V0.23125H53.824ZM57.3006 0.23125H57.5006V0.03125H57.3006V0.23125ZM3.67656 16.5086H3.47656V16.7086H3.67656V16.5086ZM11.7518 16.5086H11.9518V16.3086H11.7518V16.5086ZM11.7518 19.9012V20.1012H11.9518V19.9012H11.7518ZM0.2 19.9012H0V20.1012H0.2V19.9012ZM0.2 0.2625V0.0625H0V0.2625H0.2ZM3.67656 0.2625H3.87656V0.0625H3.67656V0.2625ZM16.0574 14.0584H15.8574V14.0584L16.0574 14.0584ZM18.1668 16.5086L18.1668 16.7086H18.1668V16.5086ZM20.2449 14.0584L20.4449 14.0584V14.0584H20.2449ZM20.2449 7.55254V7.35254H20.0449V7.55254H20.2449ZM23.7215 7.55254H23.9215V7.35254H23.7215V7.55254ZM23.7215 16.5086H23.5215V16.7086H23.7215V16.5086ZM25.3807 16.5086H25.5807V16.3086H25.3807V16.5086ZM25.3807 19.9012V20.1012H25.5807V19.9012H25.3807ZM21.4227 19.116L21.5505 18.9622L21.4374 18.8682L21.314 18.9481L21.4227 19.116ZM18.2938 19.9012V20.1012H18.2938L18.2938 19.9012ZM18.1668 19.9012L18.165 20.1012H18.1668V19.9012ZM12.6443 7.55254V7.35254H12.4443V7.55254H12.6443ZM16.0574 7.55254H16.2574V7.35254H16.0574V7.55254ZM42.1707 16.5086H41.9707V16.7086H42.1707V16.5086ZM43.7029 16.5086H43.9029V16.3086H43.7029V16.5086ZM43.7029 19.9012V20.1012H43.9029V19.9012H43.7029ZM38.7254 7.55254V7.35254H38.5254V7.55254H38.7254ZM42.1707 7.55254H42.3707V7.35254H42.1707V7.55254ZM83.7225 16.5086H83.5225V16.7086H83.7225V16.5086ZM85.2547 16.5086H85.4547V16.3086H85.2547V16.5086ZM85.2547 19.9012V20.1012H85.4547V19.9012H85.2547ZM83.6268 19.9012L83.6267 20.1012H83.6268V19.9012ZM80.2771 7.55254V7.35254H80.0772V7.55254H80.2771ZM83.7225 7.55254H83.9225V7.35254H83.7225V7.55254ZM32.823 7.49883V7.29883H32.823L32.823 7.49883ZM37.2557 9.31914L37.3951 9.46254L37.5393 9.32233L37.3983 9.17891L37.2557 9.31914ZM34.7986 11.7078L34.6573 11.8493L34.7967 11.9886L34.938 11.8512L34.7986 11.7078ZM32.823 10.8914V10.6914H32.823L32.823 10.8914ZM31.4168 11.2645L31.3146 11.0925L30.6891 11.4645H31.4168V11.2645ZM31.4246 11.2645L31.5226 11.4388L32.1888 11.0645H31.4246V11.2645ZM30.0818 14.408L29.8881 14.4578L29.8894 14.4624L30.0818 14.408ZM32.823 16.4852L32.823 16.6852H32.823V16.4852ZM34.7986 15.6688L34.938 15.5253L34.7977 15.3889L34.6583 15.5262L34.7986 15.6688ZM37.2557 18.0574L37.3978 18.1981L37.5398 18.0547L37.3951 17.914L37.2557 18.0574ZM32.823 19.8777L32.823 20.0777H32.823V19.8777ZM28.3592 18.0574L28.2179 18.199L28.2188 18.1999L28.3592 18.0574ZM28.3592 9.31914L28.2188 9.17664L28.2179 9.17755L28.3592 9.31914ZM65.115 0.612109L65.0232 0.789803L65.1221 0.840858L65.2176 0.783813L65.115 0.612109ZM70.8592 0.2H71.0592V0H70.8592V0.2ZM70.8592 3.62383V3.82383H71.0592V3.62383H70.8592ZM66.8377 3.62383V3.42383H66.6377V3.62383H66.8377ZM66.8377 19.8699V20.0699H67.0377V19.8699H66.8377ZM63.3924 19.8699H63.1924V20.0699H63.3924V19.8699ZM63.3924 3.59258H63.5924V3.39258H63.3924V3.59258ZM59.3074 3.59258H59.1074V3.79258H59.3074V3.59258ZM59.3074 0.2V0H59.1074V0.2H59.3074ZM51.0115 10.9539V10.7539H51.0115L51.0115 10.9539ZM48.1756 13.7156L47.9756 13.7156V13.7156H48.1756ZM51.0115 16.5096L51.0115 16.7096H51.0115V16.5096ZM53.8162 13.7156H54.0162V13.7156L53.8162 13.7156ZM93.907 10.9529L93.9071 10.7529H93.907V10.9529ZM91.1014 13.7156H90.9014V13.7156L91.1014 13.7156ZM93.907 16.5086V16.7086H93.9071L93.907 16.5086ZM96.743 13.7156L96.943 13.7156V13.7156H96.743ZM42.1707 3.9041V4.1041H42.3707V3.9041H42.1707ZM38.7254 3.9041H38.5254V4.1041H38.7254V3.9041ZM38.7254 0.29375V0.09375H38.5254V0.29375H38.7254ZM42.1707 0.29375H42.3707V0.09375H42.1707V0.29375ZM83.7225 3.9041V4.1041H83.9225V3.9041H83.7225ZM80.2771 3.9041H80.0772V4.1041H80.2771V3.9041ZM80.2771 0.29375V0.09375H80.0772V0.29375H80.2771ZM83.7225 0.29375H83.9225V0.09375H83.7225V0.29375ZM87.7117 7.52227V7.72227C88.6699 7.72227 89.5414 8.16142 90.1142 8.81345L90.2645 8.68145L90.4147 8.54945C89.7708 7.81646 88.792 7.32227 87.7117 7.32227V7.52227ZM90.2645 8.68145L90.3788 8.8455C91.4259 8.11546 92.6572 7.75359 93.8983 7.75352L93.8982 7.55352L93.8982 7.35352C92.5797 7.3536 91.2676 7.73819 90.1501 8.51739L90.2645 8.68145ZM93.8982 7.55352V7.75352C95.6927 7.75352 97.4511 8.485 98.6579 9.97435L98.8133 9.84844L98.9687 9.72253C97.6788 8.13061 95.8015 7.35352 93.8982 7.35352V7.55352ZM98.8133 9.84844L98.6592 9.97598C100.446 12.1346 100.447 15.2964 98.6584 17.4876L98.8133 17.6141L98.9682 17.7406C100.877 15.4032 100.878 12.0285 98.9673 9.7209L98.8133 9.84844ZM98.8133 17.6141L98.6579 17.4881C97.4508 18.9778 95.6927 19.7089 93.9305 19.709L93.9305 19.909L93.9305 20.109C95.8026 20.1089 97.6791 19.3314 98.9687 17.74L98.8133 17.6141ZM93.9305 19.909V19.709C92.9729 19.709 92.047 19.4982 91.1825 19.0687L91.0936 19.2479L91.0046 19.427C91.9258 19.8846 92.9128 20.109 93.9305 20.109V19.909ZM91.0936 19.2479H90.8936V27.2H91.0936H91.2936V19.2479H91.0936ZM91.0936 27.2V27H87.6492V27.2V27.4H91.0936V27.2ZM87.6492 27.2H87.8492V10.9451H87.6492H87.4492V27.2H87.6492ZM87.6492 10.9451V10.7451H86.116V10.9451V11.1451H87.6492V10.9451ZM86.116 10.9451H86.316V7.52227H86.116H85.916V10.9451H86.116ZM86.116 7.52227V7.72227H87.7117V7.52227V7.32227H86.116V7.52227ZM75.742 7.5457V7.7457C77.1529 7.7457 78.1232 8.257 78.92 9.04172L79.0604 8.89922L79.2007 8.75672C78.3383 7.90747 77.2703 7.3457 75.742 7.3457V7.5457ZM79.0604 8.89922L78.9209 8.75582L76.4639 11.1445L76.6033 11.2879L76.7427 11.4313L79.1998 9.04262L79.0604 8.89922ZM76.6033 11.2879L76.7437 11.1454C76.4862 10.8919 76.1435 10.7451 75.7732 10.7451V10.9451V11.1451C76.0351 11.1451 76.278 11.2482 76.463 11.4304L76.6033 11.2879ZM75.7732 10.9451L75.7732 10.7451C75.5799 10.7452 75.4003 10.7825 75.1982 10.8488L75.2605 11.0389L75.3229 11.2289C75.4993 11.171 75.6353 11.1452 75.7733 11.1451L75.7732 10.9451ZM75.2605 11.0389L75.1846 10.8538C74.7372 11.0375 74.4421 11.4395 74.3597 11.8896L74.5564 11.9256L74.7532 11.9616C74.8132 11.6338 75.0256 11.3515 75.3365 11.2239L75.2605 11.0389ZM74.5564 11.9256H74.3564V19.9324H74.5564H74.7564V11.9256H74.5564ZM74.5564 19.9324V19.7324H71.0809V19.9324V20.1324H74.5564V19.9324ZM71.0809 19.9324H71.2809V10.9764H71.0809H70.8809V19.9324H71.0809ZM71.0809 10.9764V10.7764H69.5789V10.9764V11.1764H71.0809V10.9764ZM69.5789 10.9764H69.7789V7.58379H69.5789H69.3789V10.9764H69.5789ZM69.5789 7.58379V7.78379H71.1756V7.58379V7.38379H69.5789V7.58379ZM71.1756 7.58379L71.1756 7.78379C71.8309 7.78387 72.457 8.01663 73.0014 8.37402L73.1111 8.20684L73.2209 8.03965C72.6277 7.6502 71.9264 7.38388 71.1756 7.38379L71.1756 7.58379ZM73.1111 8.20684H73.3111V8.19902H73.1111H72.9111V8.20684H73.1111ZM73.1111 8.19902L73.2016 8.37741C73.9746 7.98547 74.8918 7.74571 75.742 7.7457V7.5457V7.3457C74.8224 7.34571 73.8436 7.6034 73.0207 8.02064L73.1111 8.19902ZM57.3006 16.5174V16.7174H58.8025V16.5174V16.3174H57.3006V16.5174ZM58.8025 16.5174H58.6025V19.909H58.8025H59.0025V16.5174H58.8025ZM58.8025 19.909V19.709H57.2059V19.909V20.109H58.8025V19.909ZM57.2059 19.909L57.2059 19.709C56.2441 19.7089 55.3764 19.2982 54.8072 18.6211L54.6541 18.7498L54.501 18.8785C55.1484 19.6486 56.1294 20.1089 57.2058 20.109L57.2059 19.909ZM54.6541 18.7498L54.5397 18.5857C53.4925 19.316 52.2604 19.6787 51.0193 19.6787V19.8787V20.0787C52.3382 20.0787 53.6509 19.6932 54.7685 18.9139L54.6541 18.7498ZM51.0193 19.8787L51.0193 19.6787C49.2569 19.6786 47.4979 18.9464 46.2906 17.4866L46.1365 17.6141L45.9824 17.7415C47.2717 19.3006 49.1475 20.0786 51.0193 20.0787L51.0193 19.8787ZM46.1365 17.6141L46.2904 17.4863C44.4711 15.2956 44.4722 12.1354 46.2895 9.97726L46.1365 9.84844L45.9835 9.71961C44.04 12.0277 44.0412 15.404 45.9827 17.7418L46.1365 17.6141ZM46.1365 9.84844L46.2919 9.97435C47.4997 8.48381 49.2269 7.75352 50.9881 7.75352V7.55352V7.35352C49.1148 7.35352 47.2701 8.1318 45.9811 9.72253L46.1365 9.84844ZM50.9881 7.55352L50.9881 7.75352C51.947 7.75353 52.9025 7.9651 53.7325 8.39246L53.824 8.21465L53.9156 8.03684C53.0233 7.57742 52.0041 7.35353 50.9881 7.35352L50.9881 7.55352ZM53.824 8.21465H54.024V0.23125H53.824H53.624V8.21465H53.824ZM53.824 0.23125V0.43125H57.3006V0.23125V0.03125H53.824V0.23125ZM57.3006 0.23125H57.1006V16.5174H57.3006H57.5006V0.23125H57.3006ZM3.67656 16.5086V16.7086H11.7518V16.5086V16.3086H3.67656V16.5086ZM11.7518 16.5086H11.5518V19.9012H11.7518H11.9518V16.5086H11.7518ZM11.7518 19.9012V19.7012H0.2V19.9012V20.1012H11.7518V19.9012ZM0.2 19.9012H0.4V0.2625H0.2H0V19.9012H0.2ZM0.2 0.2625V0.4625H3.67656V0.2625V0.0625H0.2V0.2625ZM3.67656 0.2625H3.47656V16.5086H3.67656H3.87656V0.2625H3.67656ZM16.0574 14.0584L15.8574 14.0584C15.8576 15.4506 16.7083 16.7085 18.1668 16.7086L18.1668 16.5086L18.1668 16.3086C17.0028 16.3085 16.2576 15.3112 16.2574 14.0584L16.0574 14.0584ZM18.1668 16.5086V16.7086C18.886 16.7086 19.4622 16.3969 19.8541 15.9039C20.2428 15.4151 20.4448 14.7563 20.4449 14.0584L20.2449 14.0584L20.0449 14.0584C20.0448 14.6831 19.8636 15.2493 19.541 15.655C19.2218 16.0565 18.759 16.3086 18.1668 16.3086V16.5086ZM20.2449 14.0584H20.4449V7.55254H20.2449H20.0449V14.0584H20.2449ZM20.2449 7.55254V7.75254H23.7215V7.55254V7.35254H20.2449V7.55254ZM23.7215 7.55254H23.5215V16.5086H23.7215H23.9215V7.55254H23.7215ZM23.7215 16.5086V16.7086H25.3807V16.5086V16.3086H23.7215V16.5086ZM25.3807 16.5086H25.1807V19.9012H25.3807H25.5807V16.5086H25.3807ZM25.3807 19.9012V19.7012H23.6268V19.9012V20.1012H25.3807V19.9012ZM23.6268 19.9012V19.7012C22.8433 19.7012 22.1223 19.4374 21.5505 18.9622L21.4227 19.116L21.2948 19.2698C21.9396 19.8056 22.7514 20.1012 23.6268 20.1012V19.9012ZM21.4227 19.116L21.314 18.9481C20.5265 19.4577 19.5168 19.7011 18.2937 19.7012L18.2938 19.9012L18.2938 20.1012C19.5671 20.1011 20.6597 19.848 21.5313 19.2839L21.4227 19.116ZM18.2938 19.9012V19.7012H18.1668V19.9012V20.1012H18.2938V19.9012ZM18.1668 19.9012L18.1686 19.7012C16.4616 19.6859 15.1387 19.2102 14.2416 18.2972C13.3444 17.384 12.8443 16.0038 12.8443 14.1199H12.6443H12.4443C12.4443 16.072 12.9634 17.5669 13.9563 18.5775C14.9494 19.5883 16.3877 20.0852 18.165 20.1012L18.1668 19.9012ZM12.6443 14.1199H12.8443V7.55254H12.6443H12.4443V14.1199H12.6443ZM12.6443 7.55254V7.75254H16.0574V7.55254V7.35254H12.6443V7.55254ZM16.0574 7.55254H15.8574V14.0584H16.0574H16.2574V7.55254H16.0574ZM42.1707 16.5086V16.7086H43.7029V16.5086V16.3086H42.1707V16.5086ZM43.7029 16.5086H43.5029V19.9012H43.7029H43.9029V16.5086H43.7029ZM43.7029 19.9012V19.7012H42.076V19.9012V20.1012H43.7029V19.9012ZM42.076 19.9012V19.7012C40.3359 19.7012 38.9254 18.3108 38.9254 16.5711H38.7254H38.5254C38.5254 18.5351 40.1184 20.1012 42.076 20.1012V19.9012ZM38.7254 16.5711H38.9254V7.55254H38.7254H38.5254V16.5711H38.7254ZM38.7254 7.55254V7.75254H42.1707V7.55254V7.35254H38.7254V7.55254ZM42.1707 7.55254H41.9707V16.5086H42.1707H42.3707V7.55254H42.1707ZM83.7225 16.5086V16.7086H85.2547V16.5086V16.3086H83.7225V16.5086ZM85.2547 16.5086H85.0547V19.9012H85.2547H85.4547V16.5086H85.2547ZM85.2547 19.9012V19.7012H83.6268V19.9012V20.1012H85.2547V19.9012ZM83.6268 19.9012L83.6268 19.7012C81.8869 19.7009 80.4771 18.3107 80.4771 16.5711H80.2771H80.0772C80.0772 18.5349 81.6693 20.1009 83.6267 20.1012L83.6268 19.9012ZM80.2771 16.5711H80.4771V7.55254H80.2771H80.0772V16.5711H80.2771ZM80.2771 7.55254V7.75254H83.7225V7.55254V7.35254H80.2771V7.55254ZM83.7225 7.55254H83.5225V16.5086H83.7225H83.9225V7.55254H83.7225ZM32.823 7.49883V7.69883C34.3707 7.69883 35.9454 8.27205 37.1131 9.45937L37.2557 9.31914L37.3983 9.17891C36.1482 7.90778 34.4672 7.29883 32.823 7.29883V7.49883ZM37.2557 9.31914L37.1163 9.17574L34.6592 11.5644L34.7986 11.7078L34.938 11.8512L37.3951 9.46254L37.2557 9.31914ZM34.7986 11.7078L34.94 11.5663C34.3644 10.9913 33.6096 10.6914 32.823 10.6914V10.8914V11.0914C33.506 11.0914 34.1584 11.3508 34.6573 11.8493L34.7986 11.7078ZM32.823 10.8914L32.823 10.6914C32.3092 10.6915 31.7674 10.8233 31.3146 11.0925L31.4168 11.2645L31.519 11.4364C31.9035 11.2077 32.3733 11.0915 32.8231 11.0914L32.823 10.8914ZM31.4168 11.2645V11.4645H31.4246V11.2645V11.0645H31.4168V11.2645ZM31.4246 11.2645L31.3266 11.0901C30.1252 11.7651 29.5498 13.1414 29.8881 14.4578L30.0818 14.408L30.2755 14.3582C29.9819 13.216 30.4805 12.0244 31.5226 11.4388L31.4246 11.2645ZM30.0818 14.408L29.8894 14.4624C30.2609 15.7761 31.4204 16.6849 32.823 16.6852L32.823 16.4852L32.8231 16.2852C31.603 16.285 30.598 15.4985 30.2743 14.3536L30.0818 14.408ZM32.823 16.4852V16.6852C33.6039 16.6852 34.3891 16.3527 34.939 15.8113L34.7986 15.6688L34.6583 15.5262C34.1811 15.9961 33.4959 16.2852 32.823 16.2852V16.4852ZM34.7986 15.6688L34.6592 15.8122L37.1163 18.2008L37.2557 18.0574L37.3951 17.914L34.938 15.5253L34.7986 15.6688ZM37.2557 18.0574L37.1135 17.9167C35.945 19.0975 34.4012 19.6777 32.823 19.6777V19.8777V20.0777C34.5 20.0777 36.1487 19.4603 37.3978 18.1981L37.2557 18.0574ZM32.823 19.8777L32.8231 19.6777C31.2453 19.6776 29.7084 19.1054 28.4995 17.9149L28.3592 18.0574L28.2188 18.1999C29.5065 19.468 31.1459 20.0776 32.823 20.0777L32.823 19.8777ZM28.3592 18.0574L28.5004 17.9158C26.1532 15.5741 26.1532 11.8024 28.5004 9.46073L28.3592 9.31914L28.2179 9.17755C25.714 11.6756 25.7141 15.701 28.2179 18.199L28.3592 18.0574ZM28.3592 9.31914L28.4995 9.46164C29.7002 8.27916 31.2765 7.69894 32.8231 7.69883L32.823 7.49883L32.823 7.29883C31.1778 7.29894 29.4988 7.91613 28.2188 9.17664L28.3592 9.31914ZM63.4871 0.2V0.4C64.0272 0.4 64.5652 0.55321 65.0232 0.789803L65.115 0.612109L65.2068 0.434416C64.701 0.17312 64.1004 0 63.4871 0V0.2ZM65.115 0.612109L65.2176 0.783813C65.6626 0.518038 66.1631 0.4 66.743 0.4V0.2V0C66.1062 0 65.5314 0.130457 65.0125 0.440406L65.115 0.612109ZM66.743 0.2V0.4H70.8592V0.2V0H66.743V0.2ZM70.8592 0.2H70.6592V3.62383H70.8592H71.0592V0.2H70.8592ZM70.8592 3.62383V3.42383H66.8377V3.62383V3.82383H70.8592V3.62383ZM66.8377 3.62383H66.6377V19.8699H66.8377H67.0377V3.62383H66.8377ZM66.8377 19.8699V19.6699H63.3924V19.8699V20.0699H66.8377V19.8699ZM63.3924 19.8699H63.5924V3.59258H63.3924H63.1924V19.8699H63.3924ZM63.3924 3.59258V3.39258H59.3074V3.59258V3.79258H63.3924V3.59258ZM59.3074 3.59258H59.5074V0.2H59.3074H59.1074V3.59258H59.3074ZM59.3074 0.2V0.4H63.4871V0.2V0H59.3074V0.2ZM51.0115 10.9539L51.0115 10.7539C49.352 10.754 47.9757 12.0341 47.9756 13.7156L48.1756 13.7156L48.3756 13.7156C48.3757 12.2694 49.5582 11.154 51.0115 11.1539L51.0115 10.9539ZM48.1756 13.7156H47.9756C47.9756 15.3939 49.3406 16.7095 51.0115 16.7096L51.0115 16.5096L51.0115 16.3096C49.5537 16.3095 48.3756 15.1652 48.3756 13.7156H48.1756ZM51.0115 16.5096V16.7096C52.6786 16.7096 54.0162 15.3588 54.0162 13.7156H53.8162H53.6162C53.6162 15.1381 52.4575 16.3096 51.0115 16.3096V16.5096ZM53.8162 13.7156L54.0162 13.7156C54.0161 12.0695 52.6755 10.7539 51.0115 10.7539V10.9539V11.1539C52.4604 11.1539 53.6161 12.2962 53.6162 13.7156L53.8162 13.7156ZM93.907 10.9529V10.7529C92.2445 10.7529 90.9014 12.0368 90.9014 13.7156H91.1014H91.3014C91.3014 12.2665 92.4566 11.1529 93.907 11.1529V10.9529ZM91.1014 13.7156L90.9014 13.7156C90.9014 15.3912 92.2333 16.7086 93.907 16.7086V16.5086V16.3086C92.4519 16.3086 91.3014 15.168 91.3014 13.7156L91.1014 13.7156ZM93.907 16.5086L93.9071 16.7086C95.6039 16.7083 96.9429 15.3602 96.943 13.7156L96.743 13.7156L96.543 13.7156C96.5429 15.1364 95.3859 16.3084 93.907 16.3086L93.907 16.5086ZM96.743 13.7156H96.943C96.943 12.0668 95.568 10.7532 93.9071 10.7529L93.907 10.9529L93.907 11.1529C95.3586 11.1532 96.543 12.2991 96.543 13.7156H96.743ZM42.1707 3.9041V3.7041H38.7254V3.9041V4.1041H42.1707V3.9041ZM38.7254 3.9041H38.9254V0.29375H38.7254H38.5254V3.9041H38.7254ZM38.7254 0.29375V0.49375H42.1707V0.29375V0.09375H38.7254V0.29375ZM42.1707 0.29375H41.9707V3.9041H42.1707H42.3707V0.29375H42.1707ZM83.7225 3.9041V3.7041H80.2771V3.9041V4.1041H83.7225V3.9041ZM80.2771 3.9041H80.4771V0.29375H80.2771H80.0772V3.9041H80.2771ZM80.2771 0.29375V0.49375H83.7225V0.29375V0.09375H80.2771V0.29375ZM83.7225 0.29375H83.5225V3.9041H83.7225H83.9225V0.29375H83.7225Z" fill="var(--stroke-0, white)" mask="url(#path-1-outside-1_0_4)"/>
</g>
<defs>
<linearGradient id="paint0_linear_0_4" x1="0.2" y1="13.7" x2="100.2" y2="13.7" gradientUnits="userSpaceOnUse">
<stop stop-color="#003CFF"/>
<stop offset="1" stop-color="#FF0040"/>
</linearGradient>
</defs>
</svg>
